grf
version=1
nRows=6
nColumns=37
inDegrees=no
endheader
time	ground_force_1_vx	ground_force_1_vy	ground_force_1_vz	ground_force_1_px	ground_force_1_py	ground_force_1_pz	ground_moment_1_mx	ground_moment_1_my	ground_moment_1_mz	ground_force_2_vx	ground_force_2_vy	ground_force_2_vz	ground_force_2_px	ground_force_2_py	ground_force_2_pz	ground_moment_2_mx	ground_moment_2_my	ground_moment_2_mz	ground_force_3_vx	ground_force_3_vy	ground_force_3_vz	ground_force_3_px	ground_force_3_py	ground_force_3_pz	ground_moment_3_mx	ground_moment_3_my	ground_moment_3_mz	ground_force_4_vx	ground_force_4_vy	ground_force_4_vz	ground_force_4_px	ground_force_4_py	ground_force_4_pz	ground_moment_4_mx	ground_moment_4_my	ground_moment_4_mz
      0.00000000	      0.00000000	     -0.00000000	      0.00000000	      0.00000000	      0.00000000	      0.00000000	      0.00000000	      0.00000000	      0.00000000	     -1.17723048	     13.61947346	   -289.99539185	   -330.70541450	  -1004.59630054	      0.00000000	      0.00000000	      0.00000000	   2100.78154826	      2.32316307	    -13.22333738	   -478.11990356	   -347.30459524	   -799.51607437	      0.00000000	      0.00000000	     -0.00000000	  -2649.86072970	      0.00000000	     -0.00000000	      0.00000000	      0.00000000	      0.00000000	      0.00000000	      0.00000000	      0.00000000	      0.00000000
      0.01000000	      0.00000000	     -0.00000000	      0.00000000	      0.00000000	      0.00000000	      0.00000000	      0.00000000	      0.00000000	      0.00000000	     -1.34702551	     13.52124119	   -291.97451782	   -331.47404175	  -1004.63049123	      0.00000000	      0.00000000	      0.00000000	   2154.72879225	      2.26854162	    -13.08003445	   -479.08544922	   -347.67774080	   -798.67210568	      0.00000000	      0.00000000	     -0.00000000	  -2650.88358413	      0.00000000	     -0.00000000	      0.00000000	      0.00000000	      0.00000000	      0.00000000	      0.00000000	      0.00000000	      0.00000000
      0.02000000	      0.00000000	     -0.00000000	      0.00000000	      0.00000000	      0.00000000	      0.00000000	      0.00000000	      0.00000000	      0.00000000	     -1.92662680	     13.58379269	   -290.80966187	   -330.80945606	  -1003.64882371	      0.00000000	      0.00000000	      0.00000000	   1968.43014107	      2.72424918	    -12.98328805	   -478.02239990	   -347.38993838	   -798.77127605	      0.00000000	      0.00000000	     -0.00000000	  -2744.71701072	      0.00000000	     -0.00000000	      0.00000000	      0.00000000	      0.00000000	      0.00000000	      0.00000000	      0.00000000	      0.00000000
      0.03000000	      0.00000000	     -0.00000000	      0.00000000	      0.00000000	      0.00000000	      0.00000000	      0.00000000	      0.00000000	      0.00000000	     -1.46385729	     13.84255409	   -291.72662354	   -331.54440504	  -1004.50370121	      0.00000000	      0.00000000	      0.00000000	   2113.90299318	      2.60747245	    -13.23957657	   -476.66058350	   -348.01593921	   -799.97796524	      0.00000000	      0.00000000	     -0.00000000	  -2695.01738692	      0.00000000	     -0.00000000	      0.00000000	      0.00000000	      0.00000000	      0.00000000	      0.00000000	      0.00000000	      0.00000000
      0.04000000	      0.00000000	     -0.00000000	      0.00000000	      0.00000000	      0.00000000	      0.00000000	      0.00000000	      0.00000000	      0.00000000	     -1.76574862	     13.59393311	   -292.82272339	   -332.64798965	  -1005.36534940	      0.00000000	      0.00000000	      0.00000000	   2058.28997685	      2.92745476	    -13.08917834	   -475.64868164	   -347.57940435	   -799.77285640	      0.00000000	      0.00000000	     -0.00000000	  -2588.36039063	      0.00000000	     -0.00000000	      0.00000000	      0.00000000	      0.00000000	      0.00000000	      0.00000000	      0.00000000	      0.00000000
      0.05000000	      0.00000000	     -0.00000000	      0.00000000	      0.00000000	      0.00000000	      0.00000000	      0.00000000	      0.00000000	      0.00000000	     -1.31010282	     13.50540638	   -291.70666504	   -331.57870510	  -1002.90587954	      0.00000000	      0.00000000	      0.00000000	   2050.12042582	      2.64343601	    -13.06270527	   -475.54449463	   -347.83106506	   -798.93047577	      0.00000000	      0.00000000	     -0.00000000	  -2497.86568348	      0.00000000	     -0.00000000	      0.00000000	      0.00000000	      0.00000000	      0.00000000	      0.00000000	      0.00000000	      0.00000000
